<?xml version="1.0" encoding="utf-8"?>
<!-- Generator: Adobe Illustrator 24.1.3, SVG Export Plug-In . SVG Version: 6.00 Build 0)  -->
<svg version="1.1" id="Layer_1" xmlns="http://www.w3.org/2000/svg" xmlns:xlink="http://www.w3.org/1999/xlink" x="0px" y="0px"
	 viewBox="0 0 268.8 268.8" style="enable-background:new 0 0 268.8 268.8;" xml:space="preserve">
<path d="M134.4,0c74.2,0,134.4,60.2,134.4,134.4c0,72.9-58.3,132.2-130.7,134.2c-1.2,0.1-2.4,0.2-3.7,0.2c-1.3,0-2.4-0.1-3.7-0.2
	C58.3,266.6,0,207.3,0,134.4C0,60.2,60.2,0,134.4,0L134.4,0z M140,12.1v49.5h39.2c-1.9-5.7-4-11.1-6.3-15.9
	C163.7,26.4,152,14.9,140,12.1L140,12.1z M128.8,12.1c-12,2.8-23.7,14.3-32.9,33.6c-2.3,4.9-4.4,10.3-6.3,15.9h39.2L128.8,12.1z
	 M165.9,15.4c6.5,6.8,12.3,15.3,17.1,25.4c3,6.4,5.9,13.4,8.2,20.8h42.5C217.4,39.2,193.5,22.7,165.9,15.4L165.9,15.4z M102.9,15.4
	C75.3,22.7,51.4,39.2,35,61.6h42.5c2.4-7.5,5.2-14.5,8.2-20.8C90.6,30.7,96.4,22.2,102.9,15.4L102.9,15.4z M241,72.8h-46.6
	c4.3,16.9,6.6,35.9,7,56h56C256.5,108.4,250.6,89.4,241,72.8z M182.5,72.8H140v56h50.2C189.8,108.5,187,89.4,182.5,72.8L182.5,72.8z
	 M128.8,72.8H86.3c-4.5,16.6-7.3,35.7-7.7,56h50.2V72.8L128.8,72.8z M74.4,72.8H27.8c-9.6,16.6-15.5,35.6-16.4,56h56
	C67.8,108.7,70.1,89.7,74.4,72.8z M257.4,140h-56c-0.4,20.1-2.7,39.1-7,56h46.7C250.7,179.4,256.5,160.3,257.4,140z M190.2,140H140
	v56h42.5C187,179.4,189.8,160.3,190.2,140L190.2,140z M128.8,140H78.6c0.4,20.3,3.2,39.4,7.7,56h42.5V140L128.8,140z M67.4,140h-56
	c0.9,20.4,6.7,39.4,16.3,56h46.7C70.1,179.1,67.8,160.1,67.4,140z M233.8,207.2h-42.5c-2.4,7.5-5.2,14.3-8.2,20.6
	c-4.9,10.2-10.8,18.9-17.3,25.7C193.5,246.3,217.3,229.7,233.8,207.2L233.8,207.2z M179.2,207.2H140v49.7
	c12-2.8,23.7-14.6,32.9-33.9C175.2,218.1,177.3,212.8,179.2,207.2L179.2,207.2z M128.8,207.2H89.6c1.9,5.7,4,10.9,6.3,15.8
	c9.2,19.3,20.9,31.1,32.9,33.9L128.8,207.2z M77.5,207.2H35c16.5,22.5,40.3,39.1,68.1,46.4c-6.6-6.8-12.5-15.5-17.3-25.7
	C82.7,221.5,79.9,214.6,77.5,207.2L77.5,207.2z"/>
</svg>
