<svg xmlns="http://www.w3.org/2000/svg" version="1.1" xmlns:xlink="http://www.w3.org/1999/xlink" xmlns:svgjs="http://svgjs.dev/svgjs" width="1500" height="1500" viewBox="0 0 1500 1500"><rect width="1500" height="1500" fill="#243837"></rect><g transform="matrix(0.6666666666666666,0,0,0.6666666666666666,250,250.0006418387536)"><svg viewBox="0 0 280 280" data-background-color="#243837" preserveAspectRatio="xMidYMid meet" height="1500" width="1500" xmlns="http://www.w3.org/2000/svg" xmlns:xlink="http://www.w3.org/1999/xlink"><g id="tight-bounds" transform="matrix(1,0,0,1,0,0.0001797148510149782)"><svg viewBox="0 0 280 280" height="280" width="280"><g><svg viewBox="0 0 280 280" height="280" width="280"><g><svg viewBox="0 0 280 280" height="280" width="280"><g id="textblocktransform"><svg viewBox="0 0 280 280" height="280" width="280" id="textblock"><g><svg viewBox="0 0 280 280" height="280" width="280"><g transform="matrix(1,0,0,1,41.83000854526766,41.83000854526766)"><svg viewBox="0 0 196.33998290946468 196.33998290946468" height="196.33998290946468" width="196.33998290946468"><g id="icon-0"><circle r="98" cx="98.16999145473234" cy="98.16999145473234" fill="#fe7833" data-fill-palette-color="accent"></circle><svg xmlns="http://www.w3.org/2000/svg" xmlns:xlink="http://www.w3.org/1999/xlink" version="1.1" x="29.4509974364197" y="29.4509974364197" viewBox="0 0 100 42.591" enable-background="new 0 0 100 42.591" xml:space="preserve" id="jxe-0" width="137.43798803662528" height="137.43798803662528" class="icon-jxe-0" data-fill-palette-color="quaternary"><path d="M19.525 24.44C14.525 24.44 10.456 28.515 10.456 33.529 10.456 38.515 14.525 42.591 19.525 42.591 24.538 42.591 28.613 38.515 28.613 33.529 28.613 28.515 24.538 24.44 19.525 24.44M19.525 38.412C16.849 38.412 14.649 36.211 14.649 33.529 14.649 30.834 16.85 28.633 19.525 28.633 22.22 28.633 24.414 30.834 24.414 33.529 24.414 36.21 22.22 38.412 19.525 38.412" fill="#243837" data-fill-palette-color="quaternary"></path><path d="M80.632 24.44C75.625 24.44 71.556 28.515 71.556 33.529 71.556 38.515 75.625 42.591 80.632 42.591 85.638 42.591 89.7 38.515 89.7 33.529 89.7 28.515 85.638 24.44 80.632 24.44M80.632 38.412C77.937 38.412 75.742 36.211 75.742 33.529 75.742 30.834 77.936 28.633 80.632 28.633S85.521 30.834 85.521 33.529C85.521 36.21 83.327 38.412 80.632 38.412" fill="#243837" data-fill-palette-color="quaternary"></path><path d="M98.249 26.732C98.249 17.917 92.754 16.862 92.754 16.862 84.675 15.729 70.755 15.143 70.755 15.143 69.479 12.93 63.581 0 60.149 0H30.006C25.638 0 18.483 12.604 16.914 15.456 16.914 15.456 11.432 16.394 8.848 16.993 7.416 17.318 3.438 17.396 3.438 28.503H0V33.529H8.366C8.366 27.357 13.373 22.357 19.525 22.357 25.703 22.357 30.697 27.357 30.697 33.529H69.46A11.16 11.16 0 0 1 80.632 22.357C86.797 22.357 91.797 27.357 91.797 33.529H100V26.732zM44.746 14.284H27.344C29.694 6.953 34.056 1.719 35.899 1.719H44.747zM47.988 14.284V1.719H59.277C61.601 1.719 66.699 12.357 68.131 15.078z" fill="#243837" data-fill-palette-color="quaternary"></path></svg></g></svg></g><g id="text-0"><path d="M26.345 102.977v0c-0.627 1.921-1.701 3.235-3.221 3.942-1.527 0.705-3.332 0.717-5.416 0.037v0c-2.058-0.672-3.754-1.711-5.088-3.12-1.334-1.408-2.216-3.033-2.646-4.873-0.434-1.849-0.333-3.747 0.302-5.694v0c0.429-1.315 0.991-2.285 1.684-2.909 0.687-0.626 1.415-0.814 2.183-0.563v0c0.69 0.225 1.257 0.774 1.7 1.647v0c0.167 0.328 0.289 0.725 0.368 1.19 0.072 0.463 0.072 0.805 0 1.026v0c-0.081 0.247-0.242 0.422-0.484 0.523v0c-0.395 0.174-0.802 0.437-1.22 0.791-0.416 0.347-0.753 0.918-1.012 1.712v0c-0.44 1.348-0.34 2.598 0.299 3.751 0.642 1.146 1.705 1.961 3.19 2.446v0c1.348 0.44 2.557 0.41 3.628-0.091 1.078-0.498 1.823-1.379 2.235-2.643v0c0.215-0.658 0.332-1.415 0.353-2.273 0.021-0.858-0.088-1.661-0.327-2.409v0c-0.182-0.391-0.219-0.752-0.111-1.084v0c0.179-0.547 0.613-0.708 1.304-0.483v0c0.905 0.295 1.623 1.031 2.154 2.206v0c0.408 0.89 0.625 1.969 0.651 3.239 0.025 1.269-0.15 2.48-0.526 3.632z" fill="#ffffff" data-fill-palette-color="primary"></path><path d="M40.617 73.971v0c-0.996 1.418-2.24 2.248-3.732 2.49-1.492 0.241-3.067-0.22-4.726-1.385v0c-1.177-0.826-2.188-1.884-3.033-3.172-0.849-1.282-1.44-2.693-1.774-4.233-0.328-1.536-0.344-3.116-0.048-4.741 0.29-1.629 0.974-3.212 2.053-4.748v0c0.996-1.418 2.092-2.461 3.288-3.127 1.187-0.665 2.195-0.706 3.024-0.124v0c0.213 0.15 0.473 0.37 0.779 0.661 0.31 0.285 0.547 0.539 0.709 0.761v0c0.143 0.201 0.245 0.419 0.306 0.654 0.063 0.245 0.019 0.474-0.13 0.687v0c-0.063 0.09-0.223 0.241-0.482 0.453v0c0.426 0.442 0.862 0.852 1.307 1.231 0.435 0.381 0.889 0.737 1.36 1.068v0c0.903 0.634 1.798 1.057 2.686 1.27 0.884 0.219 1.693-0.016 2.428-0.705v0c0.194-0.182 0.385-0.303 0.57-0.366 0.186-0.062 0.433 0.015 0.742 0.232v0c0.258 0.181 0.543 0.478 0.856 0.89 0.313 0.412 0.5 0.916 0.559 1.51 0.064 0.589-0.145 1.225-0.624 1.909v0c-0.649 0.925-1.486 1.396-2.511 1.413-1.023 0.027-2.159-0.399-3.41-1.277v0c0.706 1.45 1.082 2.923 1.128 4.42 0.046 1.497-0.396 2.906-1.325 4.229zM37.722 70.245v-0.001c0.665-0.947 0.955-1.986 0.871-3.117-0.086-1.14-0.437-2.227-1.05-3.26v0c-0.385-0.655-0.865-1.289-1.439-1.902-0.57-0.618-1.171-1.182-1.801-1.691v0c-0.474 0.27-0.951 0.621-1.431 1.055-0.484 0.439-0.924 0.941-1.321 1.507v0c-1.015 1.446-1.427 2.932-1.234 4.456 0.195 1.534 0.931 2.75 2.21 3.648v0c0.947 0.665 1.893 0.94 2.836 0.824 0.943-0.116 1.73-0.622 2.359-1.519z" fill="#ffffff" data-fill-palette-color="primary"></path><path d="M63.847 47.904v0c-0.361 0.283-0.698 0.448-1.011 0.493-0.313 0.045-0.553-0.106-0.721-0.453v0c-0.512-1.174-1.083-2.333-1.711-3.476-0.619-1.143-1.294-2.18-2.025-3.113v0c-0.947-1.207-1.712-2.03-2.293-2.471-0.587-0.436-1.09-0.668-1.512-0.694-0.422-0.017-0.858 0.06-1.308 0.231v0c-0.212 0.062-0.425 0.085-0.638 0.069-0.213-0.016-0.399-0.126-0.56-0.331v0c-0.25-0.318-0.403-0.768-0.459-1.35-0.051-0.587 0.037-1.2 0.265-1.841 0.233-0.635 0.645-1.186 1.238-1.651v0c0.77-0.605 1.518-0.761 2.244-0.469 0.726 0.292 1.427 0.869 2.104 1.731v0c-0.305-1.232-0.366-2.351-0.181-3.359 0.185-1.007 0.729-1.866 1.634-2.576v0c0.614-0.482 1.234-0.747 1.859-0.794 0.625-0.047 1.177 0.234 1.655 0.843v0c0.482 0.614 0.733 1.344 0.753 2.191 0.02 0.846-0.172 1.428-0.575 1.746v0c-0.07 0.055-0.159 0.108-0.268 0.158-0.108 0.05-0.231 0.055-0.368 0.014v0c-0.58-0.128-1.085-0.023-1.516 0.315v0c-0.663 0.52-0.903 1.406-0.722 2.657 0.176 1.255 0.838 2.664 1.986 4.227v0c0.471 0.544 0.945 1.109 1.421 1.693 0.472 0.579 0.816 1.005 1.031 1.28v0c0.66 0.84 0.969 1.717 0.928 2.629-0.036 0.908-0.453 1.675-1.25 2.301z" fill="#ffffff" data-fill-palette-color="primary"></path><path d="M93.343 38.663v0c-0.506 0.21-0.945 0.243-1.315 0.101-0.371-0.143-0.682-0.555-0.935-1.236v0c-0.165-0.399-0.43-1.127-0.795-2.184-0.356-1.054-0.763-2.305-1.223-3.753-0.462-1.454-0.936-2.971-1.42-4.549-0.484-1.579-0.954-3.104-1.409-4.577-0.452-1.466-0.836-2.731-1.151-3.794v0c-0.253 0.142-0.496 0.269-0.731 0.382-0.235 0.112-0.462 0.244-0.682 0.394v0c-0.242 0.167-0.43 0.278-0.563 0.333v0c-0.323 0.134-0.615 0.029-0.876-0.315-0.27-0.348-0.476-0.692-0.618-1.034v0c-0.168-0.405-0.247-0.765-0.237-1.081 0.01-0.316 0.181-0.635 0.515-0.958v0c0.196-0.207 0.47-0.432 0.821-0.675 0.354-0.236 0.735-0.472 1.142-0.707v0c-0.521-1.63-0.934-3.209-1.241-4.735-0.309-1.533-0.375-2.914-0.196-4.146v0c0.194-1.267 0.697-2.414 1.51-3.44 0.809-1.018 1.76-1.754 2.854-2.207v0c0.797-0.331 1.613-0.491 2.448-0.482 0.837 0.016 1.59 0.204 2.259 0.565 0.662 0.363 1.138 0.892 1.426 1.589v0c0.21 0.506 0.255 0.973 0.136 1.4-0.122 0.421-0.344 0.699-0.667 0.833v0c-0.133 0.055-0.289 0.09-0.468 0.105-0.179 0.015-0.363 0.028-0.551 0.039v0c-0.346-0.012-0.76 0.026-1.242 0.115-0.476 0.086-0.967 0.234-1.473 0.445v0c-1.044 0.433-1.75 1.056-2.117 1.868-0.361 0.81-0.496 1.763-0.405 2.859 0.1 1.1 0.322 2.332 0.665 3.695v0c0.539-0.29 1.118-0.594 1.736-0.909 0.618-0.316 1.126-0.556 1.525-0.722v0c0.639-0.265 1.179-0.374 1.622-0.327 0.445 0.053 0.782 0.358 1.013 0.914v0c0.144 0.348 0.254 0.781 0.328 1.299 0.074 0.518 0.066 1.007-0.026 1.468-0.091 0.46-0.294 0.756-0.61 0.887v0c-0.133 0.055-0.378 0.108-0.735 0.16v0c-0.369 0.094-0.849 0.215-1.44 0.364-0.597 0.151-1.328 0.391-2.192 0.72v0c0.367 1.19 0.811 2.5 1.33 3.931 0.51 1.427 1.087 2.916 1.73 4.466v0c0.695 1.677 1.351 3.106 1.968 4.289 0.617 1.183 1.14 2.141 1.57 2.874v0c0.192 0.321 0.361 0.61 0.506 0.869 0.136 0.255 0.236 0.462 0.301 0.62v0c0.32 0.772 0.38 1.444 0.18 2.017-0.203 0.566-0.524 1.033-0.964 1.401-0.438 0.374-0.872 0.651-1.303 0.829z" fill="#ffffff" data-fill-palette-color="primary"></path><path d="M122.869 22.026v0c-1.972 0.289-3.63-0.016-4.973-0.913-1.343-0.897-2.167-2.39-2.472-4.477v0c-0.143-0.976-0.146-1.941-0.008-2.895 0.137-0.955 0.374-1.865 0.711-2.732v0c-0.411 0.358-0.732 0.554-0.962 0.588v0c-0.346 0.051-0.611-0.108-0.797-0.476-0.185-0.367-0.305-0.738-0.359-1.11v0c-0.096-0.657-0.037-1.199 0.177-1.625 0.215-0.426 0.436-0.756 0.665-0.99v0c0.528-0.603 1.39-1.308 2.588-2.113 1.197-0.805 2.694-1.339 4.49-1.602v0c2.46-0.36 4.469 0.049 6.025 1.227 1.556 1.171 2.514 2.986 2.874 5.446v0c0.28 1.911 0.134 3.705-0.438 5.38-0.572 1.676-1.495 3.074-2.771 4.196-1.283 1.122-2.866 1.821-4.75 2.096zM123.551 17.462v0c1.43-0.209 2.574-0.837 3.431-1.883 0.851-1.045 1.168-2.31 0.951-3.794v0c-0.226-1.545-0.889-2.573-1.988-3.084-1.092-0.512-2.296-0.671-3.611-0.479v0c-0.603 0.088-1.137 0.225-1.601 0.411-0.471 0.187-0.908 0.396-1.31 0.628v0c-0.317 0.628-0.582 1.324-0.795 2.089-0.208 0.757-0.248 1.566-0.123 2.427v0c0.209 1.43 0.794 2.445 1.754 3.045 0.968 0.606 2.065 0.819 3.292 0.64z" fill="#ffffff" data-fill-palette-color="primary"></path><path d="M154.315 21.452v0c-0.454-0.065-0.806-0.195-1.055-0.39-0.249-0.195-0.306-0.473-0.171-0.835v0c0.495-1.181 0.939-2.394 1.332-3.638 0.399-1.237 0.683-2.441 0.851-3.615v0c0.218-1.519 0.286-2.64 0.203-3.365-0.09-0.726-0.27-1.25-0.542-1.572-0.28-0.317-0.636-0.579-1.07-0.787v0c-0.192-0.111-0.355-0.248-0.491-0.413-0.135-0.165-0.185-0.376-0.148-0.633v0c0.057-0.4 0.277-0.822 0.659-1.266 0.389-0.442 0.894-0.802 1.515-1.079 0.62-0.271 1.303-0.353 2.049-0.246v0c0.97 0.139 1.599 0.572 1.889 1.299 0.29 0.727 0.357 1.632 0.202 2.717v0c0.68-1.072 1.448-1.889 2.303-2.451 0.856-0.562 1.853-0.761 2.992-0.598v0c0.773 0.111 1.392 0.376 1.858 0.796 0.466 0.42 0.643 1.013 0.533 1.779v0c-0.111 0.773-0.466 1.459-1.063 2.058-0.598 0.599-1.151 0.862-1.66 0.789v0c-0.088-0.013-0.188-0.041-0.3-0.084-0.111-0.044-0.199-0.129-0.264-0.256v0c-0.308-0.508-0.733-0.801-1.275-0.879v0c-0.834-0.12-1.641 0.318-2.42 1.314-0.786 0.994-1.348 2.446-1.684 4.356v0c-0.068 0.717-0.149 1.449-0.243 2.197-0.093 0.741-0.164 1.284-0.213 1.63v0c-0.152 1.058-0.572 1.887-1.26 2.486-0.681 0.601-1.524 0.83-2.527 0.686z" fill="#ffffff" data-fill-palette-color="primary"></path><path d="M186.795 30.253v0c-0.984-0.416-1.839-0.953-2.565-1.609-0.729-0.65-1.246-1.352-1.552-2.106-0.309-0.763-0.307-1.517 0.008-2.261v0c0.168-0.397 0.429-0.733 0.783-1.008 0.354-0.274 0.755-0.317 1.202-0.127v0c0.24 0.101 0.464 0.274 0.673 0.519v0c0.367 0.468 0.875 0.972 1.524 1.514 0.648 0.542 1.386 0.988 2.212 1.337v0c0.934 0.395 1.816 0.612 2.647 0.651 0.825 0.036 1.339-0.185 1.542-0.664v0c0.157-0.372-0.002-0.752-0.478-1.139-0.473-0.393-1.311-0.952-2.514-1.677v0c-0.808-0.535-1.58-1.081-2.319-1.639-0.729-0.561-1.253-1.214-1.571-1.958-0.311-0.741-0.252-1.62 0.178-2.635v0c0.416-0.984 1.089-1.819 2.018-2.505 0.938-0.689 2.083-1.109 3.433-1.259 1.35-0.15 2.807 0.105 4.372 0.767v0c0.826 0.349 1.584 0.782 2.274 1.296 0.699 0.511 1.222 1.059 1.569 1.645 0.347 0.586 0.402 1.159 0.164 1.721v0c-0.203 0.479-0.555 0.847-1.057 1.103-0.502 0.256-1.025 0.418-1.567 0.487-0.548 0.066-0.968 0.037-1.258-0.086v0c-0.214-0.091-0.405-0.343-0.573-0.755v0c-0.297-0.564-0.686-1.034-1.167-1.409-0.487-0.377-0.996-0.678-1.526-0.902v0c-0.801-0.339-1.498-0.492-2.092-0.46-0.593 0.032-0.969 0.234-1.126 0.606v0c-0.144 0.341-0.053 0.706 0.273 1.096 0.319 0.388 0.765 0.759 1.336 1.112 0.575 0.347 1.125 0.68 1.652 1v0c1.449 0.865 2.518 1.749 3.208 2.65 0.683 0.899 0.749 2.001 0.197 3.307v0c-0.427 1.009-1.138 1.891-2.134 2.645-0.989 0.757-2.159 1.229-3.51 1.416-1.348 0.181-2.767-0.043-4.256-0.673z" fill="#ffffff" data-fill-palette-color="primary"></path><path d="M214.789 47.151v0c-1.327-1.115-2.046-2.426-2.157-3.933-0.111-1.507 0.485-3.037 1.79-4.589v0c0.925-1.101 2.066-2.017 3.422-2.747 1.351-0.735 2.808-1.201 4.37-1.4 1.558-0.194 3.134-0.073 4.728 0.362 1.598 0.43 3.115 1.249 4.552 2.457v0c1.327 1.115 2.27 2.297 2.831 3.546 0.56 1.24 0.513 2.248-0.139 3.023v0c-0.167 0.199-0.409 0.439-0.725 0.72-0.311 0.285-0.584 0.498-0.819 0.64v0c-0.213 0.125-0.439 0.208-0.679 0.248-0.249 0.041-0.473-0.022-0.673-0.19v0c-0.084-0.07-0.22-0.243-0.409-0.518v0c-0.477 0.387-0.924 0.785-1.34 1.195-0.417 0.401-0.811 0.821-1.182 1.262v0c-0.709 0.844-1.209 1.699-1.498 2.566-0.295 0.862-0.131 1.689 0.493 2.48v0c0.164 0.209 0.269 0.409 0.314 0.6 0.046 0.19-0.053 0.43-0.295 0.718v0c-0.203 0.241-0.523 0.5-0.961 0.777-0.438 0.276-0.955 0.418-1.552 0.426-0.592 0.012-1.208-0.25-1.848-0.788v0c-0.865-0.727-1.262-1.602-1.19-2.624 0.062-1.021 0.584-2.117 1.567-3.286v0c-1.505 0.578-3.006 0.825-4.501 0.741-1.495-0.084-2.861-0.646-4.099-1.686zM218.753 44.59v0c0.886 0.745 1.896 1.124 3.03 1.137 1.144 0.013 2.257-0.242 3.339-0.764v0c0.686-0.327 1.359-0.75 2.019-1.269 0.665-0.515 1.279-1.064 1.841-1.647v0c-0.228-0.496-0.537-1.001-0.927-1.517-0.395-0.52-0.858-1.002-1.387-1.447v0c-1.353-1.137-2.797-1.675-4.333-1.615-1.545 0.061-2.821 0.69-3.825 1.886v0c-0.745 0.886-1.1 1.804-1.066 2.754 0.034 0.95 0.47 1.777 1.309 2.482z" fill="#ffffff" data-fill-palette-color="primary"></path><path d="M239.356 73.173v0c-0.475-0.687-0.639-1.327-0.492-1.921 0.153-0.597 0.703-1.223 1.649-1.878v0c0.456-0.316 1.065-0.682 1.825-1.1 0.762-0.427 1.59-0.88 2.484-1.357v0c1.117-0.565 2.273-1.181 3.468-1.85 1.189-0.665 2.294-1.35 3.313-2.055v0c1.448-1.002 2.907-2.107 4.378-3.316 1.465-1.205 2.573-2.505 3.324-3.899v0c0.331-0.545 0.603-0.892 0.817-1.04v0c0.31-0.214 0.699-0.284 1.167-0.208 0.478 0.077 0.957 0.246 1.437 0.505 0.478 0.269 0.847 0.592 1.108 0.97v0c0.429 0.62 0.471 1.277 0.128 1.973-0.343 0.696-0.963 1.424-1.86 2.187-0.895 0.753-1.962 1.558-3.201 2.415v0c-1.876 1.298-3.553 2.346-5.033 3.144-1.485 0.803-2.799 1.491-3.943 2.066v0c-0.759 0.384-1.473 0.748-2.142 1.095-0.678 0.344-1.268 0.69-1.769 1.036v0c-0.828 0.573-1.332 1.121-1.51 1.645-0.181 0.533-0.234 1.232-0.161 2.097v0c0.017 0.23 0.013 0.416-0.013 0.559-0.02 0.139-0.115 0.267-0.284 0.384v0c-0.192 0.133-0.553 0.241-1.086 0.327-0.538 0.089-1.133 0.018-1.785-0.215-0.652-0.232-1.258-0.753-1.819-1.564z" fill="#ffffff" data-fill-palette-color="primary"></path><path d="M252.568 99.877v0c-0.753-2.058-0.749-3.88 0.013-5.464 0.753-1.589 2.188-2.77 4.305-3.544v0c1.923-0.704 3.827-0.923 5.711-0.657 1.884 0.266 3.553 0.939 5.006 2.019 1.455 1.087 2.495 2.482 3.118 4.187v0c0.596 1.627 0.673 3.076 0.233 4.345-0.44 1.27-1.325 2.148-2.656 2.635v0c-1.055 0.386-2.151 0.419-3.29 0.099-1.134-0.329-2.163-0.937-3.086-1.825-0.925-0.894-1.631-2.007-2.118-3.338v0c-0.596-1.627-0.715-3.09-0.359-4.387v0c-1.238 0.482-2.085 1.277-2.54 2.385-0.455 1.107-0.445 2.311 0.03 3.61v0c0.287 0.785 0.724 1.54 1.311 2.266 0.587 0.726 1.233 1.296 1.938 1.709v0c0.467 0.259 0.76 0.553 0.88 0.881v0c0.099 0.27 0.091 0.528-0.023 0.774-0.11 0.237-0.3 0.405-0.57 0.505v0c-0.598 0.219-1.574-0.007-2.929-0.679v0c-2.403-1.185-4.061-3.025-4.974-5.521zM262.355 96.996v0c0.355 0.971 0.856 1.711 1.501 2.218 0.649 0.499 1.286 0.634 1.91 0.406v0c0.515-0.188 0.833-0.553 0.957-1.094 0.125-0.535 0.049-1.181-0.229-1.94v0c-0.367-1.003-0.951-1.782-1.752-2.335-0.8-0.553-1.737-0.82-2.808-0.799v0c-0.106 0.469-0.116 1.027-0.033 1.675 0.084 0.648 0.235 1.271 0.454 1.869z" fill="#ffffff" data-fill-palette-color="primary"></path><path d="M7.169 141.207c0-1.864 1.511-3.376 3.376-3.375 1.864 0 3.376 1.511 3.375 3.375 0 1.864-1.511 3.376-3.375 3.376-1.864 0-3.376-1.511-3.376-3.376z" fill="#ffffff" data-fill-palette-color="primary"></path><path d="M266.08 141.207c0-1.864 1.511-3.376 3.375-3.375 1.864 0 3.376 1.511 3.376 3.375 0 1.864-1.511 3.376-3.376 3.376-1.864 0-3.376-1.511-3.375-3.376z" fill="#ffffff" data-fill-palette-color="primary"></path></g><g id="text-1"><path d="M7.995 185.636v0c-0.645-1.966-0.554-3.7 0.272-5.204 0.835-1.499 2.319-2.599 4.454-3.299v0c2.109-0.692 4.14-0.86 6.094-0.506 1.948 0.356 3.658 1.165 5.132 2.426 1.473 1.261 2.536 2.888 3.189 4.879v0c0.444 1.354 0.569 2.495 0.376 3.423-0.191 0.935-0.68 1.531-1.467 1.79v0c-0.703 0.231-1.503 0.122-2.399-0.327v0c-0.337-0.171-0.677-0.427-1.02-0.769-0.341-0.335-0.548-0.617-0.623-0.844v0c-0.083-0.254-0.055-0.497 0.085-0.731v0c0.214-0.38 0.391-0.842 0.53-1.385 0.133-0.541 0.065-1.218-0.202-2.031v0c-0.452-1.38-1.294-2.351-2.523-2.914-1.23-0.563-2.603-0.595-4.119-0.098v0c-1.373 0.45-2.354 1.208-2.942 2.273-0.581 1.063-0.66 2.242-0.235 3.537v0c0.222 0.677 0.581 1.377 1.078 2.101 0.503 0.722 1.081 1.318 1.733 1.789v0c0.38 0.214 0.626 0.49 0.737 0.829v0c0.184 0.56-0.076 0.955-0.779 1.185v0c-0.924 0.303-1.961 0.131-3.11-0.515v0c-0.875-0.492-1.708-1.253-2.5-2.284-0.788-1.039-1.375-2.148-1.761-3.325z" fill="#ffffff" data-fill-palette-color="primary"></path><path d="M24.85 219.687v0c-1.022-1.45-1.388-2.935-1.101-4.453 0.284-1.524 1.271-2.881 2.963-4.072v0c1.21-0.852 2.579-1.465 4.109-1.838 1.528-0.364 3.09-0.442 4.685-0.235 1.6 0.214 3.132 0.747 4.596 1.601 1.466 0.844 2.753 2.053 3.862 3.626v0c1.022 1.45 1.644 2.863 1.867 4.24 0.233 1.377-0.073 2.364-0.918 2.959v0c-0.218 0.154-0.522 0.33-0.91 0.528-0.379 0.2-0.703 0.34-0.973 0.421v0c-0.247 0.065-0.497 0.086-0.748 0.062-0.251-0.024-0.454-0.145-0.608-0.363v0c-0.067-0.095-0.157-0.3-0.27-0.615v0c-0.581 0.258-1.127 0.534-1.64 0.829-0.517 0.289-1.019 0.605-1.506 0.948v0c-0.918 0.647-1.634 1.361-2.149 2.142-0.518 0.775-0.574 1.636-0.167 2.581v0c0.109 0.25 0.16 0.478 0.154 0.683-0.001 0.201-0.158 0.413-0.471 0.633v0c-0.263 0.185-0.649 0.357-1.158 0.515-0.503 0.154-1.052 0.159-1.648 0.016-0.589-0.146-1.13-0.57-1.623-1.269v0c-0.663-0.941-0.829-1.908-0.499-2.904 0.33-0.995 1.136-1.944 2.418-2.847v0c-1.639 0.183-3.189 0.034-4.649-0.445-1.456-0.474-2.662-1.388-3.616-2.743zM29.444 218.198v0c0.678 0.963 1.58 1.601 2.705 1.915 1.125 0.313 2.291 0.351 3.498 0.112v0c0.772-0.141 1.553-0.382 2.344-0.721 0.787-0.345 1.538-0.731 2.251-1.158v0c-0.098-0.543-0.272-1.124-0.524-1.743-0.257-0.615-0.591-1.213-1.001-1.796v0c-1.037-1.473-2.327-2.382-3.869-2.728-1.544-0.337-2.968-0.045-4.274 0.874v0c-0.969 0.682-1.56 1.497-1.773 2.442-0.219 0.95-0.005 1.884 0.643 2.803z" fill="#ffffff" data-fill-palette-color="primary"></path><path d="M52.114 249.695v0c-0.372-0.291-0.62-0.586-0.744-0.882-0.12-0.303-0.026-0.577 0.28-0.825v0c1.039-0.805 2.052-1.655 3.041-2.551 0.983-0.901 1.848-1.828 2.595-2.783v0c0.967-1.235 1.598-2.198 1.895-2.888 0.296-0.69 0.404-1.245 0.324-1.664-0.086-0.424-0.27-0.838-0.554-1.243v0c-0.107-0.197-0.179-0.405-0.215-0.625-0.041-0.215 0.021-0.427 0.186-0.637v0c0.258-0.329 0.67-0.589 1.237-0.78 0.562-0.195 1.191-0.255 1.888-0.179 0.692 0.072 1.34 0.344 1.944 0.817v0c0.793 0.621 1.133 1.326 1.019 2.115-0.112 0.799-0.515 1.641-1.207 2.526v0c1.146-0.608 2.244-0.944 3.295-1.01 1.041-0.064 2.028 0.27 2.961 1.001v0c0.631 0.494 1.045 1.044 1.24 1.649 0.201 0.61 0.057 1.227-0.432 1.853v0c-0.494 0.631-1.159 1.059-1.996 1.282-0.835 0.234-1.463 0.186-1.883-0.143v0c-0.07-0.055-0.14-0.132-0.211-0.231-0.075-0.093-0.111-0.213-0.11-0.359v0c-0.011-0.609-0.24-1.088-0.688-1.439v0c-0.674-0.528-1.614-0.55-2.818-0.066-1.205 0.484-2.439 1.488-3.702 3.013v0c-0.434 0.599-0.883 1.205-1.345 1.818-0.466 0.618-0.807 1.064-1.022 1.339v0c-0.675 0.863-1.47 1.389-2.384 1.579-0.915 0.18-1.78-0.049-2.594-0.687z" fill="#ffffff" data-fill-palette-color="primary"></path><path d="M79.965 276.168v0c-0.519-0.215-0.861-0.508-1.026-0.88-0.171-0.375-0.1-0.897 0.215-1.568v0c0.17-0.411 0.507-1.128 1.011-2.15 0.498-1.025 1.107-2.229 1.828-3.614 0.714-1.387 1.469-2.828 2.265-4.322 0.796-1.494 1.56-2.939 2.292-4.333 0.736-1.386 1.374-2.578 1.913-3.578v0c-0.285-0.081-0.554-0.166-0.806-0.256-0.252-0.089-0.513-0.157-0.784-0.201v0c-0.293-0.062-0.506-0.12-0.639-0.176v0c-0.329-0.136-0.466-0.423-0.412-0.859 0.051-0.446 0.15-0.846 0.297-1.201v0c0.17-0.411 0.375-0.727 0.614-0.947 0.233-0.222 0.589-0.331 1.068-0.325v0c0.291-0.006 0.65 0.032 1.077 0.112 0.433 0.083 0.879 0.186 1.339 0.309v0c0.807-1.556 1.651-2.997 2.533-4.323 0.884-1.332 1.836-2.38 2.856-3.143v0c1.062-0.776 2.256-1.243 3.58-1.4 1.331-0.154 2.557 0.001 3.677 0.465v0c0.817 0.338 1.523 0.815 2.121 1.432 0.593 0.609 0.998 1.287 1.214 2.037 0.225 0.745 0.19 1.476-0.105 2.191v0c-0.215 0.519-0.518 0.886-0.912 1.102-0.396 0.222-0.758 0.265-1.087 0.128v0c-0.139-0.058-0.281-0.146-0.424-0.264-0.141-0.125-0.282-0.25-0.423-0.375v0c-0.243-0.256-0.569-0.524-0.979-0.805-0.414-0.29-0.88-0.542-1.399-0.757v0c-1.063-0.44-2.021-0.498-2.874-0.176-0.852 0.322-1.642 0.915-2.369 1.777-0.73 0.869-1.461 1.92-2.192 3.152v0c0.597 0.188 1.233 0.388 1.908 0.6 0.682 0.215 1.228 0.408 1.64 0.578v0c0.658 0.272 1.128 0.589 1.409 0.949 0.283 0.354 0.306 0.82 0.067 1.396v0c-0.147 0.354-0.378 0.744-0.694 1.169-0.325 0.429-0.688 0.776-1.086 1.041-0.395 0.274-0.757 0.343-1.087 0.207v0c-0.139-0.058-0.356-0.196-0.651-0.414v0c-0.331-0.204-0.767-0.466-1.309-0.786-0.536-0.318-1.235-0.67-2.098-1.057v0c-0.598 1.124-1.226 2.391-1.884 3.802-0.664 1.408-1.323 2.903-1.977 4.486v0c-0.712 1.722-1.274 3.235-1.687 4.538-0.413 1.304-0.726 2.375-0.94 3.214v0c-0.096 0.375-0.184 0.706-0.265 0.991-0.087 0.283-0.165 0.506-0.233 0.671v0c-0.327 0.791-0.771 1.319-1.333 1.583-0.555 0.267-1.126 0.376-1.713 0.326-0.587-0.05-1.099-0.165-1.536-0.346z" fill="#ffffff" data-fill-palette-color="primary"></path><path d="M120.064 279.55v0c-2.02-0.295-3.556-1.081-4.608-2.356-1.053-1.275-1.423-2.98-1.11-5.116v0c0.146-0.996 0.426-1.942 0.841-2.836 0.415-0.895 0.916-1.718 1.503-2.469v0c-0.51 0.223-0.884 0.317-1.121 0.282v0c-0.346-0.051-0.557-0.282-0.636-0.695-0.071-0.412-0.079-0.808-0.023-1.187v0c0.099-0.678 0.316-1.193 0.651-1.545 0.335-0.352 0.651-0.614 0.946-0.786v0c0.686-0.433 1.736-0.867 3.15-1.305 1.407-0.438 3.032-0.522 4.876-0.252v0c2.514 0.368 4.364 1.355 5.547 2.961 1.19 1.614 1.601 3.678 1.233 6.192v0c-0.287 1.959-0.956 3.674-2.009 5.147-1.054 1.479-2.375 2.581-3.962 3.304-1.587 0.723-3.346 0.943-5.278 0.661zM122.081 275.276v0c1.464 0.214 2.768-0.066 3.913-0.84 1.145-0.774 1.828-1.923 2.051-3.448v0c0.231-1.579-0.116-2.779-1.041-3.6-0.924-0.827-2.061-1.34-3.409-1.537v0c-0.617-0.09-1.181-0.111-1.694-0.061-0.512 0.043-1.001 0.12-1.467 0.232v0c-0.499 0.522-0.961 1.126-1.387 1.812-0.432 0.684-0.713 1.467-0.841 2.348v0c-0.214 1.464 0.065 2.633 0.836 3.507 0.765 0.873 1.778 1.402 3.039 1.587z" fill="#ffffff" data-fill-palette-color="primary"></path><path d="M156.967 279.963v0c-0.468 0.067-0.852 0.043-1.153-0.073-0.301-0.123-0.435-0.38-0.401-0.773v0c0.138-1.307 0.225-2.627 0.262-3.961 0.03-1.333-0.041-2.599-0.213-3.799v0c-0.223-1.553-0.481-2.675-0.774-3.366-0.293-0.691-0.619-1.153-0.977-1.386-0.365-0.231-0.792-0.385-1.281-0.46v0c-0.216-0.059-0.416-0.151-0.6-0.277-0.183-0.119-0.294-0.311-0.332-0.575v0c-0.059-0.414 0.038-0.891 0.293-1.433 0.248-0.541 0.64-1.036 1.177-1.487 0.531-0.45 1.175-0.729 1.935-0.838v0c0.997-0.143 1.741 0.1 2.232 0.728 0.499 0.634 0.829 1.507 0.989 2.619v0c0.354-1.248 0.871-2.273 1.551-3.077 0.675-0.796 1.598-1.278 2.771-1.446v0c0.793-0.114 1.476-0.032 2.049 0.246 0.579 0.277 0.926 0.808 1.039 1.594v0c0.114 0.793-0.038 1.569-0.455 2.328-0.409 0.765-0.878 1.185-1.407 1.261v0c-0.088 0.013-0.192 0.01-0.313-0.007-0.119-0.011-0.231-0.067-0.335-0.17v0c-0.447-0.413-0.952-0.58-1.515-0.499v0c-0.847 0.122-1.513 0.785-1.998 1.989-0.485 1.204-0.613 2.79-0.386 4.757v0c0.132 0.728 0.26 1.471 0.382 2.229 0.123 0.764 0.21 1.319 0.26 1.665v0c0.156 1.085-0.014 2.023-0.51 2.813-0.503 0.785-1.267 1.251-2.29 1.398z" fill="#ffffff" data-fill-palette-color="primary"></path><path d="M194.226 270.049v0c-1.01 0.426-2.013 0.674-3.009 0.745-0.999 0.064-1.884-0.06-2.655-0.374-0.781-0.317-1.331-0.855-1.65-1.612v0c-0.173-0.41-0.234-0.845-0.183-1.306 0.048-0.451 0.302-0.774 0.762-0.968v0c0.246-0.104 0.534-0.144 0.864-0.119v0c0.607 0.064 1.341 0.051 2.204-0.038 0.859-0.095 1.712-0.321 2.557-0.677v0c0.953-0.402 1.738-0.893 2.356-1.473 0.624-0.583 0.832-1.12 0.625-1.613v0c-0.16-0.379-0.552-0.533-1.177-0.462-0.631 0.073-1.639 0.29-3.025 0.651v0c-0.972 0.217-1.927 0.393-2.866 0.529-0.93 0.139-1.781 0.06-2.554-0.239-0.769-0.308-1.372-0.979-1.808-2.014v0c-0.423-1.003-0.555-2.092-0.397-3.267 0.165-1.177 0.673-2.317 1.524-3.419 0.854-1.096 2.085-1.983 3.694-2.662v0c0.846-0.357 1.703-0.607 2.572-0.75 0.869-0.143 1.643-0.132 2.323 0.035 0.677 0.16 1.137 0.528 1.379 1.102v0c0.208 0.492 0.228 1.015 0.06 1.569-0.17 0.548-0.425 1.045-0.764 1.493-0.339 0.448-0.66 0.735-0.963 0.864v0c-0.215 0.09-0.536 0.051-0.964-0.118v0c-0.623-0.191-1.246-0.24-1.869-0.148-0.619 0.083-1.203 0.24-1.753 0.471v0c-0.814 0.343-1.422 0.745-1.822 1.204-0.401 0.459-0.522 0.878-0.362 1.257v0c0.149 0.353 0.482 0.551 0.997 0.593 0.513 0.036 1.102-0.03 1.767-0.198 0.674-0.165 1.31-0.33 1.911-0.494v0c1.677-0.447 3.088-0.6 4.233-0.459 1.151 0.139 2.009 0.877 2.573 2.216v0c0.437 1.035 0.577 2.187 0.422 3.457-0.149 1.267-0.638 2.462-1.466 3.584-0.83 1.116-2.009 1.996-3.536 2.64z" fill="#ffffff" data-fill-palette-color="primary"></path><path d="M227.111 250.195v0c-1.359 1.14-2.807 1.631-4.344 1.472-1.542-0.154-2.978-1.024-4.307-2.608v0c-0.951-1.133-1.677-2.446-2.179-3.939-0.492-1.492-0.701-3.042-0.628-4.65 0.078-1.612 0.48-3.184 1.207-4.714 0.717-1.532 1.813-2.916 3.288-4.154v0c1.359-1.14 2.715-1.88 4.067-2.218 1.353-0.348 2.362-0.126 3.026 0.666v0c0.172 0.205 0.373 0.492 0.603 0.862 0.231 0.361 0.398 0.672 0.502 0.934v0c0.086 0.241 0.127 0.488 0.124 0.74-0.003 0.253-0.106 0.465-0.311 0.636v0c-0.089 0.075-0.286 0.182-0.589 0.321v0c0.306 0.557 0.628 1.078 0.964 1.564 0.331 0.491 0.689 0.965 1.072 1.421v0c0.722 0.861 1.494 1.514 2.315 1.961 0.816 0.451 1.678 0.434 2.586-0.051v0c0.24-0.13 0.462-0.2 0.668-0.212 0.201-0.016 0.424 0.122 0.67 0.416v0c0.207 0.247 0.41 0.617 0.611 1.111 0.195 0.489 0.247 1.035 0.155 1.64-0.096 0.599-0.472 1.174-1.128 1.725v0c-0.882 0.74-1.832 0.987-2.851 0.742-1.019-0.245-2.033-0.968-3.041-2.17v0c0.32 1.618 0.303 3.175-0.051 4.67-0.349 1.491-1.159 2.769-2.429 3.835zM225.24 245.743v0c0.902-0.757 1.462-1.71 1.68-2.857 0.217-1.148 0.156-2.313-0.183-3.495v0c-0.206-0.757-0.512-1.515-0.917-2.275-0.41-0.755-0.858-1.47-1.343-2.145v0c-0.533 0.143-1.097 0.366-1.692 0.669-0.591 0.308-1.159 0.691-1.705 1.149v0c-1.38 1.158-2.177 2.52-2.392 4.086-0.205 1.567 0.205 2.962 1.23 4.184v0c0.762 0.908 1.623 1.428 2.584 1.561 0.965 0.138 1.878-0.154 2.738-0.877z" fill="#ffffff" data-fill-palette-color="primary"></path><path d="M254.986 220.239v0c-0.492 0.709-1.049 1.098-1.672 1.166-0.626 0.074-1.426-0.227-2.4-0.902v0c-0.461-0.32-1.03-0.769-1.705-1.346-0.681-0.581-1.411-1.217-2.19-1.907v0c-0.945-0.873-1.952-1.759-3.02-2.658-1.063-0.896-2.117-1.707-3.164-2.433v0c-1.486-1.031-3.067-2.032-4.744-3.004-1.686-0.97-3.337-1.565-4.951-1.785v0c-0.636-0.116-1.064-0.251-1.284-0.403v0c-0.315-0.219-0.521-0.57-0.618-1.055-0.101-0.479-0.109-0.997-0.023-1.553 0.077-0.555 0.25-1.027 0.52-1.416v0c0.441-0.636 1.055-0.914 1.842-0.835 0.793 0.083 1.715 0.419 2.766 1.006 1.051 0.588 2.207 1.319 3.467 2.194v0c1.919 1.331 3.53 2.566 4.833 3.704 1.298 1.134 2.43 2.145 3.398 3.033v0c0.637 0.584 1.244 1.138 1.822 1.664 0.572 0.522 1.111 0.958 1.617 1.309v0c0.855 0.594 1.569 0.88 2.141 0.861 0.563-0.018 1.246-0.215 2.049-0.592v0c0.217-0.108 0.399-0.173 0.548-0.195 0.143-0.026 0.299 0.02 0.468 0.137v0c0.191 0.133 0.427 0.442 0.706 0.928 0.278 0.476 0.425 1.07 0.44 1.781 0.006 0.713-0.276 1.48-0.846 2.301z" fill="#ffffff" data-fill-palette-color="primary"></path><path d="M270.656 189.47v0c-0.777 2.108-1.987 3.531-3.632 4.268-1.642 0.731-3.542 0.698-5.701-0.097v0c-1.973-0.727-3.604-1.817-4.894-3.271-1.296-1.456-2.155-3.086-2.577-4.891-0.42-1.812-0.308-3.592 0.336-5.34v0c0.613-1.665 1.515-2.843 2.705-3.537 1.186-0.702 2.46-0.802 3.822-0.299v0c1.08 0.398 1.956 1.1 2.629 2.107 0.669 0.998 1.068 2.153 1.198 3.464 0.13 1.311-0.055 2.644-0.554 4v0c-0.613 1.665-1.488 2.89-2.625 3.676v0c1.284 0.437 2.47 0.378 3.558-0.178 1.09-0.562 1.881-1.508 2.371-2.838v0c0.298-0.81 0.458-1.689 0.479-2.638 0.023-0.955-0.103-1.83-0.379-2.625v0c-0.192-0.509-0.227-0.93-0.103-1.265v0c0.102-0.276 0.277-0.475 0.525-0.594 0.246-0.114 0.508-0.12 0.784-0.018v0c0.611 0.225 1.222 1.052 1.834 2.482v0c1.089 2.511 1.164 5.042 0.224 7.594zM261.102 185.238v0c0.367-0.996 0.468-1.904 0.303-2.725-0.174-0.816-0.579-1.341-1.215-1.575v0c-0.527-0.194-1.02-0.124-1.479 0.21-0.453 0.337-0.822 0.894-1.109 1.672v0c-0.377 1.022-0.436 2.015-0.178 2.979 0.258 0.964 0.811 1.792 1.658 2.483v0c0.395-0.3 0.776-0.729 1.142-1.287 0.36-0.561 0.652-1.147 0.878-1.757z" fill="#ffffff" data-fill-palette-color="primary"></path></g></svg></g></svg></g></svg></g><g></g></svg></g><defs></defs></svg><rect width="280" height="280" fill="none" stroke="none" visibility="hidden"></rect></g></svg></g></svg>