<svg width="134" height="50" viewBox="0 0 134 50" fill="none" xmlns="http://www.w3.org/2000/svg">
<path d="M48.49 22.8349C48.8129 22.8349 49.0688 22.7362 49.2579 22.5387C49.4548 22.3333 49.5532 22.0647 49.5532 21.7329V15.8555H53.6289L57.0431 22.1477C57.1376 22.3136 57.2321 22.4479 57.3266 22.5506C57.429 22.6533 57.5392 22.7243 57.6574 22.7639C57.7755 22.8112 57.9173 22.8349 58.0827 22.8349C58.3898 22.8349 58.6458 22.7401 58.8505 22.5506C59.0632 22.361 59.1695 22.1279 59.1695 21.8514C59.1695 21.7329 59.1538 21.6184 59.1222 21.5078C59.0908 21.3893 59.0317 21.255 58.945 21.1049L55.8262 15.5237C56.8974 15.184 57.7361 14.5797 58.3425 13.7107C58.949 12.8418 59.2522 11.8108 59.2522 10.6179C59.2522 9.59103 59.0277 8.69833 58.5788 7.93991C58.1299 7.1737 57.4959 6.58119 56.6769 6.1625C55.8656 5.73591 54.9126 5.52262 53.818 5.52262H48.49C48.1671 5.52262 47.9072 5.62136 47.7103 5.81886C47.5213 6.01635 47.4268 6.28495 47.4268 6.62466V21.7329C47.4268 22.0647 47.5253 22.3333 47.7221 22.5387C47.919 22.7362 48.175 22.8349 48.49 22.8349ZM49.5532 13.9714V7.41859H53.5344C54.637 7.41859 55.4994 7.70687 56.1216 8.28356C56.7438 8.86026 57.0549 9.66206 57.0549 10.689C57.0549 11.7397 56.7556 12.5495 56.157 13.1182C55.5663 13.687 54.7236 13.9714 53.6289 13.9714H49.5532ZM65.1944 22.8349C65.7458 22.8349 66.2774 22.7401 66.7893 22.5506C67.3012 22.3531 67.7619 22.0806 68.1715 21.7329C68.581 21.3774 68.9079 20.9667 69.152 20.5006H69.1993C69.1993 20.7139 69.1993 20.9311 69.1993 21.1523C69.1993 21.3656 69.1993 21.5789 69.1993 21.7922C69.1993 22.1003 69.2899 22.3531 69.471 22.5506C69.6521 22.7401 69.8884 22.8349 70.1798 22.8349C70.4633 22.8349 70.6957 22.7401 70.8768 22.5506C71.0579 22.3531 71.1485 22.1003 71.1485 21.7922V14.1018C71.1485 13.2802 70.9556 12.5692 70.5697 11.9689C70.1916 11.3685 69.6482 10.9063 68.9394 10.5824C68.2384 10.2506 67.4075 10.0847 66.4467 10.0847C65.4465 10.0847 64.5329 10.2901 63.706 10.7009C62.8869 11.1038 62.3041 11.6449 61.9575 12.3243C61.7921 12.6166 61.7094 12.901 61.7094 13.1775C61.7094 13.454 61.7921 13.6791 61.9575 13.8529C62.1308 14.0188 62.3513 14.1018 62.6191 14.1018C63.005 14.1018 63.2885 13.9359 63.4697 13.6041C63.8162 12.9958 64.2218 12.5613 64.6865 12.3006C65.159 12.032 65.73 11.8977 66.3994 11.8977C67.2501 11.8977 67.9116 12.111 68.3841 12.5376C68.8567 12.9642 69.0929 13.5528 69.0929 14.3032V15.3341L65.5607 15.5356C64.1431 15.6146 63.0443 15.9701 62.2647 16.6021C61.4928 17.234 61.107 18.0793 61.107 19.1379C61.107 19.8725 61.2763 20.5203 61.6149 21.0812C61.9615 21.6342 62.4419 22.0647 63.0562 22.3728C63.6705 22.6809 64.3832 22.8349 65.1944 22.8349ZM65.6552 21.0812C64.9149 21.0812 64.3203 20.9035 63.8714 20.548C63.4224 20.1925 63.1979 19.7224 63.1979 19.1379C63.1979 18.5533 63.4224 18.0872 63.8714 17.7396C64.3281 17.392 64.97 17.1905 65.7969 17.1353L69.0929 16.9338V17.9411C69.0929 18.5335 68.9394 19.0668 68.6322 19.5407C68.3329 20.0148 67.9234 20.39 67.4036 20.6665C66.8838 20.943 66.301 21.0812 65.6552 21.0812ZM74.7875 22.8349C75.0866 22.8349 75.3307 22.7323 75.5199 22.5269C75.7164 22.3215 75.8146 22.0568 75.8146 21.7329V15.3697C75.8146 14.6745 75.9451 14.0702 76.2046 13.5567C76.4723 13.0353 76.8469 12.6324 77.3271 12.348C77.8073 12.0557 78.3704 11.9096 79.0163 11.9096C79.9614 11.9096 80.6667 12.1743 81.1308 12.7035C81.6036 13.2328 81.8397 13.9951 81.8397 14.9905V21.7329C81.8397 22.0568 81.9343 22.3215 82.1235 22.5269C82.3199 22.7323 82.5685 22.8349 82.8676 22.8349C83.1667 22.8349 83.4109 22.7323 83.6 22.5269C83.7973 22.3215 83.8955 22.0568 83.8955 21.7329V14.6231C83.8955 13.691 83.7261 12.8852 83.3874 12.2058C83.0568 11.5264 82.5721 11.005 81.9343 10.6417C81.3045 10.2704 80.5406 10.0847 79.6424 10.0847C78.6893 10.0847 77.8865 10.2822 77.2325 10.6772C76.5866 11.0722 76.0903 11.6015 75.7442 12.2651H75.6966V11.1275C75.6966 10.8194 75.6064 10.5706 75.4253 10.381C75.2442 10.1835 75.0118 10.0847 74.7281 10.0847C74.4443 10.0847 74.2119 10.1835 74.031 10.381C73.8499 10.5706 73.7593 10.8194 73.7593 11.1275V21.7329C73.7593 22.0568 73.8538 22.3215 74.0429 22.5269C74.2398 22.7323 74.4876 22.8349 74.7875 22.8349ZM87.6522 22.8349C87.9513 22.8349 88.1955 22.7323 88.3846 22.5269C88.5811 22.3215 88.6801 22.0568 88.6801 21.7329V17.9766L89.826 16.8865L94.4449 22.4558C94.563 22.598 94.681 22.6967 94.7991 22.752C94.9178 22.8073 95.0557 22.8349 95.2126 22.8349C95.4809 22.8349 95.7052 22.752 95.8863 22.5861C96.0674 22.4123 96.1576 22.203 96.1576 21.9581C96.1576 21.8238 96.1385 21.7053 96.099 21.6026C96.0674 21.4999 96.0007 21.3853 95.8981 21.259L91.2792 15.6186L95.4611 11.637C95.5872 11.5186 95.6737 11.408 95.7206 11.3052C95.7683 11.2026 95.7918 11.0801 95.7918 10.9379C95.7918 10.7088 95.7052 10.5113 95.5315 10.3454C95.3665 10.1716 95.162 10.0847 94.9178 10.0847C94.7675 10.0847 94.6378 10.1123 94.5278 10.1677C94.4171 10.2151 94.299 10.302 94.1729 10.4283L88.6801 15.7725V6.41134C88.6801 6.08745 88.5811 5.82281 88.3846 5.61741C88.1955 5.41202 87.9513 5.30933 87.6522 5.30933C87.3531 5.30933 87.1045 5.41202 86.9081 5.61741C86.7189 5.82281 86.6243 6.08745 86.6243 6.41134V21.7329C86.6243 22.0568 86.7189 22.3215 86.9081 22.5269C87.1045 22.7323 87.3531 22.8349 87.6522 22.8349ZM99.3945 8.22436C99.7494 8.22436 100.052 8.09795 100.304 7.84512C100.557 7.59236 100.683 7.29218 100.683 6.94455C100.683 6.58906 100.557 6.2889 100.304 6.044C100.052 5.79121 99.7494 5.66481 99.3945 5.66481C99.0485 5.66481 98.7493 5.79121 98.4971 6.044C98.2449 6.2889 98.1188 6.58906 98.1188 6.94455C98.1188 7.29218 98.2449 7.59236 98.4971 7.84512C98.7493 8.09795 99.0485 8.22436 99.3945 8.22436ZM99.3945 22.8349C99.6944 22.8349 99.9385 22.7323 100.128 22.5269C100.324 22.3215 100.422 22.0568 100.422 21.7329V11.1868C100.422 10.8629 100.324 10.5982 100.128 10.3928C99.9385 10.1874 99.6944 10.0847 99.3945 10.0847C99.0954 10.0847 98.8476 10.1874 98.6503 10.3928C98.4619 10.5982 98.3673 10.8629 98.3673 11.1868V21.7329C98.3673 22.0568 98.4619 22.3215 98.6503 22.5269C98.8476 22.7323 99.0954 22.8349 99.3945 22.8349ZM103.86 19.7777C103.86 20.7573 104.109 21.492 104.604 21.9818C105.101 22.4716 105.845 22.7165 106.838 22.7165H106.967C107.353 22.7165 107.653 22.6809 107.865 22.6098C108.086 22.5387 108.239 22.4321 108.326 22.2899C108.42 22.1398 108.467 21.962 108.467 21.7566C108.467 21.5117 108.389 21.3221 108.231 21.1879C108.074 21.0536 107.826 20.9746 107.487 20.9508L107.31 20.939C106.798 20.8995 106.436 20.7534 106.223 20.5006C106.019 20.2399 105.916 19.8489 105.916 19.3275V11.9925H107.499C107.798 11.9925 108.027 11.9175 108.184 11.7674C108.342 11.6173 108.42 11.408 108.42 11.1393C108.42 10.8708 108.342 10.6654 108.184 10.5231C108.027 10.373 107.798 10.298 107.499 10.298H105.916V8.18877C105.916 7.8649 105.818 7.60023 105.621 7.39484C105.431 7.18944 105.187 7.08678 104.888 7.08678C104.589 7.08678 104.341 7.18944 104.144 7.39484C103.955 7.60023 103.86 7.8649 103.86 8.18877V10.298H102.832C102.541 10.298 102.312 10.373 102.148 10.5231C101.99 10.6654 101.911 10.8708 101.911 11.1393C101.911 11.408 101.99 11.6173 102.148 11.7674C102.312 11.9175 102.541 11.9925 102.832 11.9925H103.86V19.7777ZM115.296 22.8349C116.422 22.8349 117.399 22.6098 118.226 22.1595C119.053 21.7013 119.663 21.0536 120.057 20.2162C120.159 19.9713 120.21 19.7699 120.21 19.6118C120.21 19.3353 120.128 19.1181 119.963 18.9601C119.797 18.7942 119.576 18.7113 119.301 18.7113C119.144 18.7113 119.001 18.7429 118.875 18.8061C118.757 18.8693 118.643 18.9759 118.533 19.126C118.053 19.8212 117.56 20.3149 117.056 20.6072C116.56 20.8995 115.946 21.0456 115.213 21.0456C114.119 21.0456 113.252 20.6862 112.614 19.9673C111.976 19.2405 111.657 18.257 111.657 17.0168H119.336C119.691 17.0168 119.966 16.9101 120.163 16.6969C120.368 16.4835 120.471 16.1913 120.471 15.82C120.471 14.6903 120.242 13.6949 119.785 12.8338C119.328 11.9728 118.699 11.3013 117.895 10.8194C117.092 10.3297 116.166 10.0847 115.119 10.0847C113.992 10.0847 113.008 10.3494 112.165 10.8786C111.33 11.408 110.684 12.1545 110.228 13.1182C109.771 14.082 109.543 15.2117 109.543 16.5072C109.543 18.498 110.047 20.0503 111.055 21.1642C112.071 22.278 113.484 22.8349 115.296 22.8349ZM111.669 15.4052C111.717 14.6942 111.89 14.0741 112.189 13.5448C112.488 13.0155 112.886 12.6048 113.382 12.3124C113.878 12.0202 114.446 11.8741 115.083 11.8741C115.721 11.8741 116.281 12.0202 116.761 12.3124C117.241 12.6048 117.619 13.0155 117.895 13.5448C118.179 14.0741 118.328 14.6942 118.344 15.4052H111.669ZM127.641 22.8349C128.775 22.8349 129.768 22.5782 130.618 22.0647C131.469 21.5434 132.13 20.8047 132.603 19.8489C133.083 18.893 133.324 17.7633 133.324 16.4598C133.324 15.1485 133.083 14.0188 132.603 13.0708C132.13 12.115 131.469 11.3803 130.618 10.8668C129.768 10.3454 128.775 10.0847 127.641 10.0847C126.507 10.0847 125.511 10.3454 124.653 10.8668C123.802 11.3803 123.136 12.115 122.656 13.0708C122.183 14.0188 121.947 15.1485 121.947 16.4598C121.947 17.7633 122.183 18.893 122.656 19.8489C123.136 20.8047 123.802 21.5434 124.653 22.0647C125.511 22.5782 126.507 22.8349 127.641 22.8349ZM127.641 21.022C126.917 21.022 126.282 20.8442 125.739 20.4887C125.204 20.1332 124.786 19.6158 124.487 18.9364C124.188 18.2491 124.038 17.4236 124.038 16.4598C124.038 15.4882 124.188 14.6626 124.487 13.9833C124.786 13.3039 125.204 12.7865 125.739 12.431C126.282 12.0755 126.917 11.8977 127.641 11.8977C128.366 11.8977 128.996 12.0755 129.531 12.431C130.075 12.7865 130.492 13.3039 130.783 13.9833C131.083 14.6626 131.233 15.4882 131.233 16.4598C131.233 17.4236 131.083 18.2491 130.783 18.9364C130.492 19.6158 130.075 20.1332 129.531 20.4887C128.996 20.8442 128.366 21.022 127.641 21.022Z" fill="#1A73E8"/>
<path d="M17.5654 3.90699C19.8235 2.3095 22.4829 1.46505 25.2564 1.46505C32.623 1.46505 38.6161 7.47641 38.6161 14.8654C38.6161 17.9376 37.608 20.8271 35.7008 23.2221C35.4491 23.5381 35.5006 23.9991 35.8158 24.2516C35.9503 24.3594 36.1112 24.4119 36.2711 24.4119C36.4855 24.4119 36.6979 24.3176 36.8423 24.1364C38.9582 21.4792 40.0767 18.2734 40.0767 14.8655C40.0767 6.66872 33.4284 0 25.2565 0C22.1799 0 19.2293 0.937042 16.7236 2.70975C16.3941 2.94299 16.3152 3.39999 16.5478 3.7306C16.7801 4.06121 17.2359 4.14013 17.5654 3.90699Z" fill="#1A73E8"/>
<path d="M25.2564 29.7307C28.5408 29.7307 31.6524 28.6751 34.2545 26.6781C34.5748 26.4323 34.6358 25.9724 34.3907 25.6511C34.1456 25.3299 33.6875 25.2686 33.3669 25.5145C31.0218 27.3142 28.2173 28.2655 25.2564 28.2655C17.8898 28.2655 11.8967 22.2542 11.8967 14.8652C11.8967 11.6451 13.052 8.53243 15.15 6.10084C15.4139 5.79493 15.3806 5.33227 15.0755 5.06749C14.7706 4.8028 14.3093 4.83621 14.0453 5.14211C11.7178 7.83998 10.436 11.293 10.436 14.8652C10.4361 23.0621 17.0845 29.7307 25.2564 29.7307Z" fill="#1A73E8"/>
<path d="M50.089 35.3622C49.136 33.9573 47.5177 33.6147 45.7601 34.4447L33.0905 40.0402L33.0985 38.9408C33.1108 37.2682 31.5833 35.0081 29.0663 34.6511C29.0601 34.6502 29.0538 34.6493 29.0475 34.6486L20.7075 33.6854C18.9295 33.4314 18.0638 32.8406 16.4154 31.8737C14.038 30.4787 11.3287 29.7359 8.57541 29.7209V29.2406C8.57541 28.0436 7.60463 27.0698 6.41133 27.0698H2.9508C1.75749 27.0698 0.786682 28.0435 0.786682 29.2404V46.8502C0.786682 48.0472 1.75749 49.021 2.9508 49.021H6.41123C7.60454 49.021 8.57534 48.0472 8.57534 46.8502V46.6008L16.1556 49.4309C17.1674 49.8087 18.2278 50.0001 19.3074 50.0001H30.5549C32.27 50.0001 33.9422 49.5135 35.391 48.5927L49.4739 39.6417C49.5071 39.6206 49.5385 39.5969 49.5679 39.5706C50.7677 38.5021 50.9917 36.6928 50.089 35.3622ZM48.6378 38.4388L34.6091 47.3553C33.3946 48.1272 31.9926 48.5352 30.5548 48.5352H19.3073C18.4023 48.5352 17.5133 48.3746 16.6651 48.058L8.57526 45.0377V36.883C8.57526 36.4783 8.24827 36.1504 7.84495 36.1504C7.44163 36.1504 7.11466 36.4783 7.11466 36.883V46.8504C7.11466 47.2395 6.79907 47.556 6.41123 47.556H2.9508C2.56296 47.556 2.24737 47.2395 2.24737 46.8504V29.2404C2.24737 28.8514 2.56296 28.5349 2.9508 28.5349H6.41123C6.79907 28.5349 7.11466 28.8514 7.11466 29.2404V33.4581C7.11466 33.8627 7.44163 34.1907 7.84495 34.1907C8.24827 34.1907 8.57526 33.8627 8.57526 33.4581V31.1859C11.0698 31.201 13.5238 31.8745 15.6777 33.1384C17.4048 34.1517 18.4498 34.8447 20.5119 35.1373C20.5182 35.1382 20.5244 35.139 20.5307 35.1397L28.8705 36.1028C30.342 36.3157 31.4744 37.4912 31.6376 38.971L31.6269 40.4341H23.8264C23.4231 40.4341 23.0961 40.7621 23.0961 41.1666C23.0961 41.5712 23.4231 41.8992 23.8264 41.8992H32.3519C32.4443 41.8992 32.5498 41.8791 32.6435 41.8381C32.6443 41.8377 32.6454 41.8375 32.6462 41.8371L46.3573 35.7816C46.3633 35.779 46.3692 35.7763 46.3752 35.7734C47.1435 35.409 48.2018 35.1848 48.8815 36.1863C49.3622 36.8952 49.2552 37.8535 48.6378 38.4388Z" fill="#1A73E8"/>
<path d="M25.7139 19.5668L31.033 22.2665L30.0171 16.5483L34.3203 12.4987L28.3734 11.6645L25.7139 6.46191L23.0545 11.6645L17.1077 12.4987L21.4108 16.5483L20.3949 22.2665L25.7139 19.5668Z" fill="#FCC24C"/>
<path d="M17.1077 12.4986L18.211 12.3438L22.4416 16.3252L21.4844 21.7134L20.3949 22.2664L21.4108 16.5482L17.1077 12.4986Z" fill="#DEA42E"/>
<path d="M34.3203 12.4986L33.217 12.3438L28.9863 16.3252L29.9435 21.7134L31.033 22.2664L30.0171 16.5482L34.3203 12.4986Z" fill="#FCE06A"/>
<path d="M20.395 22.4971C20.433 22.4971 20.4712 22.4883 20.5062 22.4705L25.714 19.8273L30.9218 22.4705C31.0022 22.5115 31.0997 22.5047 31.1734 22.453C31.2469 22.4013 31.2838 22.3139 31.2685 22.2274L30.274 16.6287L34.4872 12.6637C34.5523 12.6025 34.5758 12.5108 34.5477 12.4272C34.5196 12.3438 34.4448 12.283 34.3547 12.2703L28.5323 11.4534L25.9284 6.35956C25.8882 6.28079 25.8052 6.23096 25.7141 6.23096C25.6231 6.23096 25.5401 6.28079 25.4998 6.35956L22.8959 11.4534L17.0735 12.2703C16.9834 12.2829 16.9087 12.3438 16.8806 12.4272C16.8525 12.5108 16.876 12.6025 16.9411 12.6637L21.1544 16.6287L20.1598 22.2274C20.1445 22.3139 20.1813 22.4013 20.2549 22.453C20.2962 22.4822 20.3456 22.4971 20.395 22.4971ZM33.8068 12.6597L29.8504 16.383C29.7941 16.436 29.7684 16.5124 29.7817 16.5872L30.7156 21.8447L25.8251 19.3625C25.7556 19.3271 25.6723 19.3271 25.6028 19.3625L20.7123 21.8447L21.6463 16.5872C21.6595 16.5124 21.6339 16.436 21.5776 16.383L17.6211 12.6597L23.0888 11.8927C23.1666 11.8818 23.2339 11.8347 23.2688 11.7665L25.714 6.98302L28.1592 11.7665C28.1941 11.8345 28.2613 11.8818 28.3392 11.8927L33.8068 12.6597Z" fill="#9B6E13"/>
<path d="M29.2777 18.7695C29.2911 18.7695 29.3047 18.7684 29.3183 18.7662C29.4484 18.7447 29.5357 18.6254 29.5135 18.4998L29.2676 17.1157C29.2452 16.9901 29.1214 16.9062 28.9917 16.9273C28.8616 16.949 28.7742 17.0682 28.7964 17.1937L29.0423 18.5779C29.0624 18.6902 29.1634 18.7695 29.2777 18.7695Z" fill="#9B6E13"/>
</svg>
